<svg xmlns="http://www.w3.org/2000/svg" width="60" height="60" viewBox="0 0 60 60"><g transform="translate(0 -0.296)"><rect width="60" height="60" transform="translate(0 0.296)" fill="#484b4d"/><path d="M36.032,6.572a14.887,14.887,0,0,1-3.653,1.043c.588-.1,1.456-1.164,1.8-1.6A6.721,6.721,0,0,0,35.4,3.8c.032-.063.057-.142-.007-.191a.212.212,0,0,0-.194.017,18.668,18.668,0,0,1-4.339,1.661.292.292,0,0,1-.3-.079,3.506,3.506,0,0,0-.379-.389,7.68,7.68,0,0,0-2.1-1.288,7.321,7.321,0,0,0-3.225-.52,7.715,7.715,0,0,0-3.06.865,7.891,7.891,0,0,0-2.466,2.014,7.576,7.576,0,0,0-1.474,2.952,8.034,8.034,0,0,0-.079,3.116c.025.174.009.2-.148.174-5.963-.885-10.9-3.019-14.913-7.587-.174-.2-.269-.2-.411.015C.546,7.194,1.4,11.42,3.59,13.5c.293.277.592.554.917.806A7.591,7.591,0,0,1,1.629,13.5c-.174-.11-.261-.046-.277.15A4.51,4.51,0,0,0,1.4,14.5a7.648,7.648,0,0,0,4.713,6.1,4.454,4.454,0,0,0,.956.292,8.523,8.523,0,0,1-2.822.088c-.206-.041-.285.062-.206.26C5.282,24.624,7.963,25.631,9.97,26.2c.269.047.538.047.807.111-.016.024-.032.024-.047.047-.667,1.015-2.975,1.771-4.05,2.147A14.518,14.518,0,0,1,.529,29.3c-.33-.049-.4-.045-.489,0s-.011.136.095.22c.418.277.845.522,1.281.76a20.288,20.288,0,0,0,4.112,1.644c7.388,2.04,15.71.541,21.26-4.971,4.355-4.329,5.882-10.3,5.882-16.275,0-.233.276-.362.441-.486a14.292,14.292,0,0,0,2.88-3.009.875.875,0,0,0,.179-.576V6.572C36.168,6.477,36.179,6.5,36.032,6.572Z" transform="translate(12 12.297)" fill="#fff" fill-rule="evenodd"/></g></svg>