<svg id="logo-fb" xmlns="http://www.w3.org/2000/svg" width="80" height="80" viewBox="0 0 80 80">
  <rect id="Retângulo_8" data-name="Retângulo 8" width="80" height="80" fill="#484b4d"/>
  <path id="facebook" d="M15.476,57.167a.764.764,0,0,0,.8.729H27.63a.764.764,0,0,0,.8-.729V28.72H36.66a.772.772,0,0,0,.795-.669l.791-8.569a.692.692,0,0,0-.207-.554.832.832,0,0,0-.586-.236H28.426V12.611a2.708,2.708,0,0,1,2.819-2.582h6.346a.764.764,0,0,0,.8-.729V.729a.765.765,0,0,0-.8-.729H26.871C20.579,0,15.478,4.668,15.478,10.427v8.265H9.8a.765.765,0,0,0-.8.727v8.572a.764.764,0,0,0,.8.729h5.679Z" transform="translate(16 11)" fill="#fff" fill-rule="evenodd"/>
</svg>
