<svg xmlns="http://www.w3.org/2000/svg" width="80" height="80" viewBox="0 0 80 80">
  <g id="logo-ig" transform="translate(0 0.957)">
    <path id="Caminho_4" data-name="Caminho 4" d="M0,0H80V80H0Z" transform="translate(0 -0.957)" fill="#484b4d"/>
    <path id="instagram" d="M44.068,34A10.066,10.066,0,0,1,34,44.068H14.657A10.066,10.066,0,0,1,4.591,34V14.655A10.066,10.066,0,0,1,14.657,4.589H34A10.066,10.066,0,0,1,44.068,14.655Zm4.591-19.347A14.657,14.657,0,0,0,34,0H14.659A14.656,14.656,0,0,0,0,14.655V34A14.658,14.658,0,0,0,14.659,48.659H34A14.659,14.659,0,0,0,48.659,34ZM24.412,32.34a7.7,7.7,0,1,1,7.7-7.7,7.706,7.706,0,0,1-7.7,7.7Zm0-19.713A12.016,12.016,0,1,0,36.429,24.643,12.03,12.03,0,0,0,24.412,12.627ZM37.13,8.958a2.861,2.861,0,1,0,2.861,2.861A2.861,2.861,0,0,0,37.13,8.958Z" transform="translate(16 14.044)" fill="#fff"/>
  </g>
</svg>
