<svg xmlns="http://www.w3.org/2000/svg" width="60" height="60" viewBox="0 0 60 60">
  <g id="logo-ig" transform="translate(0.834)">
    <path id="Caminho_4" data-name="Caminho 4" d="M0,0H60V60H0Z" transform="translate(-0.834)" fill="#484b4d"/>
    <path id="instagram" d="M35.308,27.243a8.065,8.065,0,0,1-8.065,8.065h-15.5a8.065,8.065,0,0,1-8.065-8.065v-15.5a8.065,8.065,0,0,1,8.065-8.065h15.5a8.065,8.065,0,0,1,8.065,8.065Zm3.678-15.5A11.743,11.743,0,0,0,27.241,0h-15.5A11.742,11.742,0,0,0,0,11.742v15.5A11.744,11.744,0,0,0,11.745,38.986h15.5A11.745,11.745,0,0,0,38.986,27.241ZM19.559,25.911a6.167,6.167,0,1,1,6.167-6.167A6.174,6.174,0,0,1,19.559,25.911Zm0-15.794a9.627,9.627,0,1,0,9.628,9.627,9.638,9.638,0,0,0-9.628-9.627Zm10.19-2.94a2.292,2.292,0,1,0,2.292,2.292,2.292,2.292,0,0,0-2.292-2.292Z" transform="translate(9.673 10.507)" fill="#fff"/>
  </g>
</svg>
