<svg xmlns="http://www.w3.org/2000/svg" width="60" height="60" viewBox="0 0 60 60"><g transform="translate(0 -0.296)"><rect width="60" height="60" transform="translate(0 0.296)" fill="#484b4d"/><path d="M13.858,42.888a.573.573,0,0,0,.6.547h8.52a.573.573,0,0,0,.6-.547V21.546h6.177a.579.579,0,0,0,.6-.5l.593-6.428a.519.519,0,0,0-.155-.416.624.624,0,0,0-.44-.177H23.574V9.461a2.031,2.031,0,0,1,2.115-1.937h4.761a.573.573,0,0,0,.6-.547V.547a.574.574,0,0,0-.6-.547H22.407c-4.72,0-8.547,3.5-8.547,7.822v6.2H9.6a.574.574,0,0,0-.6.546V21a.573.573,0,0,0,.6.547h4.261Z" transform="translate(10 8.296)" fill="#fff" fill-rule="evenodd"/></g></svg>