<svg xmlns="http://www.w3.org/2000/svg" width="161.018" height="152.997" viewBox="0 0 161.018 152.997"><g transform="translate(-3101.57 -2034.518)" opacity="0.198" style="isolation:isolate"><g transform="translate(3101.57 2034.518)" opacity="0.799"><path d="M.022,35.843S9.566,4.859,40.108.377c-1.794-.3-17.1-2.549-29.213,8.763C-.418,19.7-.064,33.791.022,35.843" transform="translate(120.361 151.336) rotate(-180)" fill="#ba1c2b"/><path d="M.022,35.843S9.566,4.859,40.108.377c-1.794-.3-17.1-2.549-29.213,8.763C-.418,19.7-.064,33.791.022,35.843" transform="translate(160.762 37.462) rotate(-180)" fill="#ba1c2b"/><path d="M.022,35.843S9.566,4.859,40.108.377c-1.794-.3-17.1-2.549-29.213,8.763C-.418,19.7-.064,33.791.022,35.843" transform="translate(40.108 151.379) rotate(-180)" fill="#ba1c2b"/><path d="M.022,35.843S9.566,4.859,40.108.377c-1.794-.3-17.1-2.549-29.213,8.763C-.418,19.7-.064,33.791.022,35.843" transform="translate(160.725 112.342) rotate(-180)" fill="#ba1c2b"/><path d="M.022,0S9.566,30.984,40.108,35.466c-1.794.3-17.1,2.549-29.213-8.764C-.418,16.14-.064,2.053.022,0" transform="translate(120.434 115.493)" fill="#ba1c2b"/><path d="M.022,0S9.566,30.984,40.108,35.466c-1.794.3-17.1,2.549-29.213-8.764C-.418,16.14-.064,2.053.022,0" transform="translate(0.256 1.747)" fill="#ba1c2b"/><path d="M.022,0S9.566,30.984,40.108,35.466c-1.794.3-17.1,2.549-29.213-8.764C-.418,16.14-.064,2.053.022,0" transform="translate(40.182 115.536)" fill="#ba1c2b"/><path d="M.022,0S9.566,30.984,40.108,35.466c-1.794.3-17.1,2.549-29.213-8.764C-.418,16.14-.064,2.053.022,0" transform="translate(0.256 76.627)" fill="#ba1c2b"/><path d="M.022,0S9.566,30.984,40.108,35.466c-1.794.3-17.1,2.549-29.213-8.764C-.418,16.14-.064,2.053.022,0" transform="translate(120.91 37.462) rotate(180)" fill="#ba1c2b"/><path d="M.022,0S9.566,30.984,40.108,35.466c-1.794.3-17.1,2.549-29.213-8.764C-.418,16.14-.064,2.053.022,0" transform="translate(160.799 76.37) rotate(180)" fill="#ba1c2b"/><path d="M.022,0S9.566,30.984,40.108,35.466c-1.794.3-17.1,2.549-29.213-8.764C-.418,16.14-.064,2.053.022,0" transform="translate(40.621 37.504) rotate(180)" fill="#ba1c2b"/><path d="M.022,0S9.566,30.984,40.108,35.466c-1.794.3-17.1,2.549-29.213-8.764C-.418,16.14-.064,2.053.022,0" transform="translate(160.762 151.251) rotate(180)" fill="#ba1c2b"/><path d="M.044,20.59S5.5,3.292,23.425.33C22.77.193,12.471-1.771,5.259,5.765A19.926,19.926,0,0,0,.044,20.59" transform="translate(120.141 152.954) rotate(-180)" fill="#ba1c2b"/><path d="M.044,20.59S5.5,3.292,23.425.33C22.77.193,12.471-1.771,5.259,5.765A19.926,19.926,0,0,0,.044,20.59" transform="translate(160.542 39.08) rotate(-180)" fill="#ba1c2b"/><path d="M.044,20.59S5.5,3.292,23.425.33C22.77.193,12.471-1.771,5.259,5.765A19.926,19.926,0,0,0,.044,20.59" transform="translate(39.888 152.997) rotate(-180)" fill="#ba1c2b"/><path d="M.044,20.59S5.5,3.292,23.425.33C22.77.193,12.471-1.771,5.259,5.765A19.926,19.926,0,0,0,.044,20.59" transform="translate(160.505 113.96) rotate(-180)" fill="#ba1c2b"/><path d="M.044,0S5.5,17.3,23.425,20.26c-.655.137-10.953,2.1-18.166-5.435A19.926,19.926,0,0,1,.044,0" transform="translate(120.654 132.364)" fill="#ba1c2b"/><path d="M.044,0S5.5,17.3,23.425,20.26c-.655.137-10.953,2.1-18.166-5.435A19.926,19.926,0,0,1,.044,0" transform="translate(0.476 18.618)" fill="#ba1c2b"/><path d="M.044,0S5.5,17.3,23.425,20.26c-.655.137-10.953,2.1-18.166-5.435A19.926,19.926,0,0,1,.044,0" transform="translate(40.401 132.407)" fill="#ba1c2b"/><path d="M.044,0S5.5,17.3,23.425,20.26c-.655.137-10.953,2.1-18.166-5.435A19.926,19.926,0,0,1,.044,0" transform="translate(0.476 93.499)" fill="#ba1c2b"/><path d="M.044,0S5.5,17.3,23.425,20.26c-.655.137-10.953,2.1-18.166-5.435A19.926,19.926,0,0,1,.044,0" transform="translate(120.691 20.59) rotate(180)" fill="#ba1c2b"/><path d="M.044,0S5.5,17.3,23.425,20.26c-.655.137-10.953,2.1-18.166-5.435A19.926,19.926,0,0,1,.044,0" transform="translate(160.579 59.499) rotate(180)" fill="#ba1c2b"/><path d="M.044,0S5.5,17.3,23.425,20.26c-.655.137-10.953,2.1-18.166-5.435A19.926,19.926,0,0,1,.044,0" transform="translate(40.401 20.633) rotate(180)" fill="#ba1c2b"/><path d="M.044,0S5.5,17.3,23.425,20.26c-.655.137-10.953,2.1-18.166-5.435A19.926,19.926,0,0,1,.044,0" transform="translate(160.542 134.379) rotate(180)" fill="#ba1c2b"/><path d="M.022,35.843S9.566,4.859,40.108.377c-1.794-.3-17.1-2.549-29.213,8.764C-.418,19.7-.064,33.791.022,35.843" transform="translate(120.91 1.618)" fill="#ba1c2b"/><path d="M.022,35.843S9.566,4.859,40.108.377c-1.794-.3-17.1-2.549-29.213,8.764C-.418,19.7-.064,33.791.022,35.843" transform="translate(0.22 40.655)" fill="#ba1c2b"/><path d="M.022,35.843S9.566,4.859,40.108.377c-1.794-.3-17.1-2.549-29.213,8.764C-.418,19.7-.064,33.791.022,35.843" transform="translate(40.621 1.661)" fill="#ba1c2b"/><path d="M.022,35.843S9.566,4.859,40.108.377c-1.794-.3-17.1-2.549-29.213,8.764C-.418,19.7-.064,33.791.022,35.843" transform="translate(0.219 115.536)" fill="#ba1c2b"/><path d="M.044,20.59S5.5,3.292,23.425.33C22.77.193,12.471-1.771,5.259,5.765A19.926,19.926,0,0,0,.044,20.59" transform="translate(121.13 0)" fill="#ba1c2b"/><path d="M.044,20.59S5.5,3.292,23.425.33C22.77.193,12.471-1.771,5.259,5.765A19.926,19.926,0,0,0,.044,20.59" transform="translate(0.439 39.037)" fill="#ba1c2b"/><path d="M.044,20.59S5.5,3.292,23.425.33C22.77.193,12.471-1.771,5.259,5.765A19.926,19.926,0,0,0,.044,20.59" transform="translate(40.84 0.043)" fill="#ba1c2b"/><path d="M.044,20.59S5.5,3.292,23.425.33C22.77.193,12.471-1.771,5.259,5.765A19.926,19.926,0,0,0,.044,20.59" transform="translate(0.439 113.917)" fill="#ba1c2b"/></g><g transform="translate(3107.66 2043.282)"><path d="M.041,65.08S17.37,8.823,72.824.685C69.567.147,41.781-3.944,19.781,16.6-.759,35.775-.117,61.353.041,65.08" transform="translate(72.824 65.08) rotate(-180)" fill="#ba1c2b"/><path d="M.041,0S17.37,56.257,72.824,64.4c-3.257.538-31.042,4.629-53.042-15.912C-.759,29.306-.117,3.727.041,0" transform="translate(72.957 0)" fill="#ba1c2b"/><path d="M.041,0S17.37,56.257,72.824,64.4c-3.257.538-31.042,4.629-53.042-15.912C-.76,29.306-.117,3.727.041,0" transform="translate(72.891 135.727) rotate(180)" fill="#ba1c2b"/><path d="M.079,37.385S9.988,5.977,42.532.6C41.343.35,22.644-3.216,9.548,10.468-.855,21.338-.086,35.115.079,37.385" transform="translate(72.425 68.019) rotate(-180)" fill="#ba1c2b"/><path d="M.079,0S9.988,31.408,42.532,36.786c-1.19.249-19.888,3.815-32.984-9.869C-.855,16.048-.086,2.27.079,0" transform="translate(73.356 30.634)" fill="#ba1c2b"/><path d="M.041,65.08S17.37,8.823,72.824.685C69.567.147,41.781-3.944,19.781,16.6-.759,35.775-.117,61.353.041,65.08" transform="translate(72.891 70.646)" fill="#ba1c2b"/><path d="M.079,37.385S9.988,5.977,42.532.6C41.343.35,22.644-3.216,9.548,10.468-.855,21.338-.086,35.115.079,37.385" transform="translate(73.289 67.708)" fill="#ba1c2b"/><path d="M.079,0S9.988,31.408,42.532,36.786c-1.19.249-19.888,3.815-32.984-9.869C-.855,16.048-.086,2.27.079,0" transform="translate(72.492 105.093) rotate(180)" fill="#ba1c2b"/></g></g></svg>